<svg width="58px" height="74px" viewBox="0 0 58 74" version="1.1" xmlns="http://www.w3.org/2000/svg" xmlns:xlink="http://www.w3.org/1999/xlink">
    <g id="Page-1" stroke="none" stroke-width="1" fill="none" fill-rule="evenodd">
        <g id="confused" fill-rule="nonzero" fill="#000000">
            <path d="M29,13.5 C32.6,13.5 35.5,10.6 35.5,7 C35.5,3.4 32.6,0.5 29,0.5 C25.4,0.5 22.5,3.4 22.5,7 C22.5,10.6 25.4,13.5 29,13.5 Z M29,3.5 C30.9,3.5 32.5,5.1 32.5,7 C32.5,8.9 30.9,10.5 29,10.5 C27.1,10.5 25.5,8.9 25.5,7 C25.5,5.1 27.1,3.5 29,3.5 Z" id="Shape"></path>
            <path d="M56.5,23 L47.1,23 L40,15.9 C39.7,15.6 39.3,15.5 38.9,15.5 L19,15.5 C18.6,15.5 18.2,15.7 17.9,15.9 L10.9,23 L1.5,23 C0.7,23 0,23.7 0,24.5 L0,32 C0,32.8 0.7,33.5 1.5,33.5 L14,33.5 C14.4,33.5 14.8,33.3 15.1,33.1 L20,28.2 L20,72 C20,72.8 20.7,73.5 21.5,73.5 L36.5,73.5 C37.3,73.5 38,72.8 38,72 L38,28.1 L42.9,33 C43.2,33.3 43.6,33.4 44,33.4 L56.5,33.4 C57.3,33.4 58,32.7 58,31.9 L58,24.4 C58,23.7 57.3,23 56.5,23 Z M55,30.5 L44.6,30.5 L37.5,23.4 C37.1,23 36.4,22.8 35.9,23.1 C35.3,23.3 35,23.9 35,24.5 L35,70.5 L30.5,70.5 L30.5,47 C30.5,46.2 29.8,45.5 29,45.5 C28.2,45.5 27.5,46.2 27.5,47 L27.5,70.5 L23,70.5 L23,24.5 C23,23.9 22.6,23.3 22.1,23.1 C21.5,22.9 20.9,23 20.5,23.4 L13.4,30.5 L3,30.5 L3,26 L11.5,26 C11.9,26 12.3,25.8 12.6,25.6 L19.7,18.5 L38.5,18.5 L45.6,25.6 C45.9,25.9 46.3,26 46.7,26 L55.2,26 L55.2,30.5 L55,30.5 Z" id="Shape"></path>
        </g>
    </g>
</svg>
