<svg width="824px" height="824px" viewBox="0 0 824 824" version="1.1" xmlns="http://www.w3.org/2000/svg" xmlns:xlink="http://www.w3.org/1999/xlink">
    <g id="Page-1" stroke="none" stroke-width="1" fill="none" fill-rule="evenodd">
        <g id="delete" fill-rule="nonzero" fill="#000000">
            <path d="M776.75678,0 C764.69278,0 752.63278,4.608 743.41178,13.828 L411.94378,345.27301 L80.52575,13.879 C62.08275,-4.562 32.27075,-4.562 13.83075,13.879 C-4.61025,32.319 -4.61025,62.123 13.83075,80.564 L345.24875,411.96001 L13.83075,743.35901 C-4.61025,761.79901 -4.61025,791.60901 13.83075,810.05001 C23.02875,819.24801 35.10275,823.86701 47.17775,823.86701 C59.25075,823.86701 71.32775,819.24801 80.52575,810.05001 L411.94378,478.65201 L743.41178,810.09701 C752.60878,819.29501 764.68278,823.91701 776.75678,823.91701 C788.83078,823.91701 800.85778,819.29501 810.10278,810.09701 C828.54478,791.65601 828.54478,761.85001 810.10278,743.41001 L478.63878,411.96401 L810.10278,80.519 C828.54478,62.078 828.54478,32.269 810.10278,13.828 C800.88178,4.608 788.81678,0 776.75678,0 Z" id="Shape"></path>
        </g>
    </g>
</svg>
