<?xml version="1.0" encoding="UTF-8"?>
<svg width="84px" height="84px" viewBox="0 0 84 84" version="1.1" xmlns="http://www.w3.org/2000/svg" xmlns:xlink="http://www.w3.org/1999/xlink">
    <!-- Generator: Sketch 42 (36781) - http://www.bohemiancoding.com/sketch -->
    <title>nonetwork</title>
    <desc>Created with Sketch.</desc>
    <defs></defs>
    <g id="Page-1" stroke="none" stroke-width="1" fill="none" fill-rule="evenodd">
        <g id="nonetwork" fill-rule="nonzero" fill="#000000">
            <path d="M45.36,62 L45.36,62 L16.54,33.16 C15.357961,32.0585646 13.5159611,32.0910645 12.3735128,33.2335128 C11.2310645,34.3759611 11.1985646,36.217961 12.3,37.4 L15.66,40.76 L8.06,48.36 C4.15618062,52.2649985 4.15618062,58.5950015 8.06,62.5 L9.47,63.91 L1.47,71.91 C0.66738729,72.6578823 0.337003274,73.7842222 0.608457833,74.8471556 C0.879912391,75.9100891 1.7099109,76.7400876 2.77284437,77.0115422 C3.83577783,77.2829967 4.96211768,76.9526127 5.71,76.15 L13.71,68.15 L15.83,70.27 L7.83,78.27 C7.02738729,79.0178823 6.69700327,80.1442222 6.96845783,81.2071556 C7.23991239,82.2700891 8.0699109,83.1000876 9.13284437,83.3715422 C10.1957778,83.6429967 11.3221177,83.3126127 12.07,82.51 L20.07,74.51 L21.48,75.92 C25.3849985,79.8238194 31.7150015,79.8238194 35.62,75.92 L43.22,68.32 L46.6,71.7 C47.782039,72.8014354 49.6240389,72.7689355 50.7664872,71.6264872 C51.9089355,70.4840389 51.9414354,68.642039 50.84,67.46 L45.36,62 Z M31.36,71.72 C29.7759125,73.2311136 27.2840875,73.2311136 25.7,71.72 L12.3,58.26 C11.5488918,57.509727 11.1268534,56.491637 11.1268534,55.43 C11.1268534,54.368363 11.5488918,53.350273 12.3,52.6 L19.9,45 L39,64.1 L31.36,71.72 Z" id="Shape"></path>
            <path d="M78.24,7.88 L70.24,15.88 L68.12,13.76 L76.12,5.76 C77.2214354,4.57796098 77.1889355,2.73596111 76.0464872,1.5935128 C74.9040389,0.451064496 73.062039,0.418564558 71.88,1.52 L63.88,9.52 L61.8,7.35 C60.1120882,5.66153693 57.8224576,4.71292189 55.435,4.71292189 C53.0475424,4.71292189 50.7579118,5.66153693 49.07,7.35 L40.76,15.66 L37.4,12.3 C36.217961,11.1985646 34.3759611,11.2310645 33.2335128,12.3735128 C32.0910645,13.5159611 32.0585646,15.357961 33.16,16.54 L38.64,22 L38.64,22 L40.4,23.76 L32.27,31.89 C31.4673873,32.6378823 31.1370033,33.7642222 31.4084578,34.8271556 C31.6799124,35.8900891 32.5099109,36.7200876 33.5728444,36.9915422 C34.6357778,37.2629967 35.7621177,36.9326127 36.51,36.13 L44.65,28 L55.26,38.64 L47.13,46.77 C46.2967356,47.5105655 45.9428305,48.6521074 46.2110412,49.7341563 C46.4792518,50.8162052 47.3253427,51.6603005 48.4080219,51.9259554 C49.4907011,52.1916103 50.6314041,51.8350107 51.37,51 L59.5,42.87 L67.5,50.87 C68.6960079,51.9140817 70.498394,51.8455742 71.6116959,50.7137173 C72.7249978,49.5818603 72.7637064,47.7785881 71.7,46.6 L68.34,43.24 L76.65,34.93 C78.3384631,33.2420882 79.2870781,30.9524576 79.2870781,28.565 C79.2870781,26.1775424 78.3384631,23.8879118 76.65,22.2 L74.53,20.08 L82.53,12.08 C83.3326127,11.3321177 83.6629967,10.2057778 83.3915422,9.14284437 C83.1200876,8.0799109 82.2900891,7.24991239 81.2271556,6.97845783 C80.1642222,6.70700327 79.0378823,7.03738729 78.29,7.84 L78.24,7.88 Z M72.41,30.68 L64.1,39 L45,19.9 L53.31,11.59 C54.4812702,10.4201865 56.3787298,10.4201865 57.55,11.59 L72.41,26.44 C73.5798135,27.6112702 73.5798135,29.5087298 72.41,30.68 Z" id="Shape"></path>
        </g>
    </g>
</svg>