<svg xmlns="http://www.w3.org/2000/svg" xmlns:xlink="http://www.w3.org/1999/xlink" version="1.0" x="0px" y="0px" viewBox="0 0 100 100" enable-background="new 0 0 100 100" xml:space="preserve">
<path d="M72.8810425,48.8977814l-0.3104095-20.9525642l-15.830822-1.7848473c0.2328033,0,6.2081642-2.4832668,6.2081642-2.4832668  l-6.4409714-5.5097485L67.216095,5.4406114L34.2352028,20.4954166l-0.0776024,14.7443981l10.0106697,4.0353088  l-21.8061867,9.7002602V69.927948l19.7885323,3.9577103l-10.243475,4.423317l8.2258205,4.8889313l-5.7425537,11.5627136  l33.6793098-14.5115967V64.0301895l-19.7885361-4.5785217L72.8810425,48.8977814z M66.7995071,29.3886623l0.9373703,0.1824856  l-21.0976181,8.8288574l-0.5424576-0.208622L66.7995071,29.3886623z M45.7605515,38.0620422l-0.7540436-0.2900162  l20.3686523-8.6606827l0.880455,0.1714115l-20.5184021,8.7243633L45.7605515,38.0620422z M58.3690758,27.7473373l1.3249931,0.257967  l-19.036232,8.0941486l-1.0142097-0.3900948L58.3690758,27.7473373z M39.2271996,35.5492096l-0.8368759-0.3218918  l18.3414536-7.7987423l1.093399,0.2128658L39.2271996,35.5492096z M60.2380409,28.1112022l1.2811928,0.2494316L42.0549011,36.636776  l-0.9807091-0.377182L60.2380409,28.1112022z M62.0632057,28.4665413l0.9789696,0.1905937l-19.8214989,8.4280128  l-0.7494202-0.2882233L62.0632057,28.4665413z M35.6891823,21.3156013l25.1106415-10.7780895l-5.8475914,7.6822567  l4.9303093,5.1597137L35.6891823,33.813591V21.3156013z M54.7802048,27.0486164l1.4076729,0.2740517l-18.2139053,7.7445011  l-1.0234528-0.3936272L54.7802048,27.0486164z M43.6370277,37.2452965l19.9491196-8.482254l1.2450447,0.242403l-20.2410355,8.606432  L43.6370277,37.2452965z M25.4271374,49.8660545l44.6602325-19.9509258v18.3456745L25.4271374,67.7530823  C25.4271374,67.7530823,25.7711182,49.8660545,25.4271374,49.8660545z M64.1250458,65.2305603l-17.1990967,7.2236023  l-0.5313911-0.1148911l17.0720024-7.2589874L64.1250458,65.2305603z M45.8688469,72.2256012l-1.141449-0.2467957  l17.1026993-7.2720108l1.1204567,0.2557068L45.8688469,72.2256012z M44.2016907,71.8651428l-1.1804771-0.2552414  l17.1340714-7.285347l1.158802,0.2644577L44.2016907,71.8651428z M42.4955063,71.4962387l-1.2414818-0.268425l17.166584-7.2991638  l1.2186699,0.2781219L42.4955063,71.4962387z M40.7283134,71.1141434l-1.1804733-0.2552414l17.1979561-7.3124924l1.158802,0.2644653  L40.7283134,71.1141434z M39.0221291,70.7452469l-1.3262062-0.2867661l17.2319069-7.3269768l1.3018837,0.2971268  L39.0221291,70.7452469z M37.1702156,70.3448257l-1.1804771-0.255249l17.2632828-7.340313l1.158802,0.264473L37.1702156,70.3448257z   M35.4640274,69.975914l-1.1900253-0.257309l17.2948875-7.353714l1.1681213,0.2666054L35.4640274,69.975914z M33.7482948,69.60495  l-1.1804771-0.255249l17.3261833-7.367054l1.158802,0.2644653L33.7482948,69.60495z M32.0421104,69.2360382l-1.0356541-0.2239304  l17.3549023-7.3792648l1.0166359,0.232029L32.0421104,69.2360382z M30.4807472,68.8984451l-1.1804771-0.2552414l17.3862801-7.392601  l1.158802,0.264473L30.4807472,68.8984451z M28.7745628,68.529541l-0.9395618-0.2031479l17.1990185-7.4529381l1.1364441,0.2593803  L28.7745628,68.529541z M65.9309616,79.0184784L37.8391533,91.2871475l4.7009888-9.0581741l-5.8475914-4.0131149  L65.9309616,66.176506C66.0455399,66.0618439,65.9309616,79.0184784,65.9309616,79.0184784z"/>
</svg>
