<?xml version="1.0" encoding="UTF-8"?>
<svg width="51px" height="90px" viewBox="0 0 51 90" version="1.1" xmlns="http://www.w3.org/2000/svg" xmlns:xlink="http://www.w3.org/1999/xlink">
    <!-- Generator: Sketch 43.2 (39069) - http://www.bohemiancoding.com/sketch -->
    <title>ribbon</title>
    <desc>Created with Sketch.</desc>
    <defs></defs>
    <g id="Page-1" stroke="none" stroke-width="1" fill="none" fill-rule="evenodd">
        <g id="ribbon" fill-rule="nonzero" fill="#000000">
            <path d="M50.8810425,43.8977814 L50.570633,22.9452172 L34.739811,21.1603699 C34.9726143,21.1603699 40.9479752,18.6771031 40.9479752,18.6771031 L34.5070038,13.1673546 L45.216095,0.4406114 L12.2352028,15.4954166 L12.1576004,30.2398147 L22.1682701,34.2751235 L0.3620834,43.9753837 L0.3620834,64.927948 L20.1506157,68.8856583 L9.9071407,73.3089753 L18.1329612,78.1979066 L12.3904075,89.7606202 L46.0697173,75.2490235 L46.0697173,59.0301895 L26.2811812,54.4516678 L50.8810425,43.8977814 Z M44.7995071,24.3886623 L45.7368774,24.5711479 L24.6392593,33.4000053 L24.0968017,33.1913833 L44.7995071,24.3886623 Z M23.7605515,33.0620422 L23.0065079,32.772026 L43.3751602,24.1113433 L44.2556152,24.2827548 L23.7372131,33.0071181 L23.7605515,33.0620422 Z M36.3690758,22.7473373 L37.6940689,23.0053043 L18.6578369,31.0994529 L17.6436272,30.7093581 L36.3690758,22.7473373 Z M17.2271996,30.5492096 L16.3903237,30.2273178 L34.7317773,22.4285755 L35.8251763,22.6414413 L17.2271996,30.5492096 Z M38.2380409,23.1112022 L39.5192337,23.3606338 L20.0549011,31.636776 L19.074192,31.259594 L38.2380409,23.1112022 Z M40.0632057,23.4665413 L41.0421753,23.657135 L21.2206764,32.0851478 L20.4712562,31.7969245 L40.0632057,23.4665413 Z M13.6891823,16.3156013 L38.7998238,5.5375118 L32.9522324,13.2197685 L37.8825417,18.3794822 L13.6891823,28.813591 L13.6891823,16.3156013 Z M32.7802048,22.0486164 L34.1878777,22.3226681 L15.9739724,30.0671692 L14.9505196,29.673542 L32.7802048,22.0486164 Z M21.6370277,32.2452965 L41.5861473,23.7630425 L42.831192,24.0054455 L22.5901565,32.6118775 L21.6370277,32.2452965 Z M3.4271374,44.8660545 L48.0873699,24.9151287 L48.0873699,43.2608032 L3.4271374,62.7530823 C3.4271374,62.7530823 3.7711182,44.8660545 3.4271374,44.8660545 Z M42.1250458,60.2305603 L24.9259491,67.4541626 L24.394558,67.3392715 L41.4665604,60.0802841 L42.1250458,60.2305603 Z M23.8688469,67.2256012 L22.7273979,66.9788055 L39.8300972,59.7067947 L40.9505539,59.9625015 L23.8688469,67.2256012 Z M22.2016907,66.8651428 L21.0212136,66.6099014 L38.155285,59.3245544 L39.314087,59.5890121 L22.2016907,66.8651428 Z M20.4955063,66.4962387 L19.2540245,66.2278137 L36.4206085,58.9286499 L37.6392784,59.2067718 L20.4955063,66.4962387 Z M18.7283134,66.1141434 L17.5478401,65.858902 L34.7457962,58.5464096 L35.9045982,58.8108749 L18.7283134,66.1141434 Z M17.0221291,65.7452469 L15.6959229,65.4584808 L32.9278298,58.131504 L34.2297135,58.4286308 L17.0221291,65.7452469 Z M15.1702156,65.3448257 L13.9897385,65.0895767 L31.2530213,57.7492637 L32.4118233,58.0137367 L15.1702156,65.3448257 Z M13.4640274,64.975914 L12.2740021,64.718605 L29.5688896,57.364891 L30.7370109,57.6314964 L13.4640274,64.975914 Z M11.7482948,64.60495 L10.5678177,64.349701 L27.894001,56.982647 L29.052803,57.2471123 L11.7482948,64.60495 Z M10.0421104,64.2360382 L9.0064563,64.0121078 L26.3613586,56.632843 L27.3779945,56.864872 L10.0421104,64.2360382 Z M8.4807472,63.8984451 L7.3002701,63.6432037 L24.6865502,56.2506027 L25.8453522,56.5150757 L8.4807472,63.8984451 Z M6.7745628,63.529541 L5.835001,63.3263931 L23.0340195,55.873455 L24.1704636,56.1328353 L6.7745628,63.529541 Z M43.9309616,74.0184784 L15.8391533,86.2871475 L20.5401421,77.2289734 L14.6925507,73.2158585 L43.9309616,61.176506 C44.0455399,61.0618439 43.9309616,74.0184784 43.9309616,74.0184784 Z" id="Shape"></path>
        </g>
    </g>
</svg>