<svg xmlns="http://www.w3.org/2000/svg" xmlns:xlink="http://www.w3.org/1999/xlink" x="0px" y="0px" enable-background="new 0 0 50 50" version="1.1" viewBox="0 0 50 62.5" xml:space="preserve">
    <path d="M44.148,13.092L33.475,0.377c-0.24-0.285-0.607-0.415-0.969-0.367H9.713c-2.337,0-4.239,1.901-4.239,4.239V45.76  c0,2.337,1.902,4.24,4.239,4.24h30.558c2.34,0,4.24-1.903,4.24-4.24V13.971c0.002-0.025,0.014-0.047,0.014-0.072  C44.525,13.576,44.383,13.287,44.148,13.092z M30.508,33.181c0.408,0.419,0.402,1.089-0.016,1.499  c-0.422,0.409-1.092,0.401-1.5-0.017l-4.007-4.097l-4.095,4.008c-0.419,0.408-1.089,0.401-1.499-0.017  c-0.409-0.421-0.401-1.09,0.017-1.499l4.095-4.007l-4.007-4.095c-0.409-0.418-0.402-1.089,0.017-1.498  c0.419-0.411,1.09-0.402,1.499,0.016l4.007,4.095l4.095-4.007c0.42-0.41,1.09-0.403,1.5,0.017c0.41,0.418,0.402,1.088-0.018,1.499  L26.5,29.084L30.508,33.181z"/>
</svg>
