<?xml version="1.0" encoding="UTF-8"?>
<svg width="450px" height="105px" viewBox="0 0 450 105" version="1.1" xmlns="http://www.w3.org/2000/svg" xmlns:xlink="http://www.w3.org/1999/xlink">
    <g id="Page-1" stroke="none" stroke-width="1" fill="none" fill-rule="evenodd">
        <g id="Desktop" transform="translate(-263.000000, -277.000000)" fill="#FFF">
            <path d="M342.2,349.608 C342.2,340.104 340.04,332.472 334.568,327.144 C330.248,322.824 323.624,319.944 314.408,318.648 L302.024,316.92 C298.424,316.488 296.264,315.192 294.968,313.896 C293.384,312.312 292.952,310.44 292.952,309.144 C292.952,304.68 296.552,299.64 305.336,299.64 C309.8,299.64 318.296,299.208 324.776,305.688 L340.616,289.848 C331.832,281.064 320.744,277.608 306.056,277.608 C282.728,277.608 268.616,291.288 268.616,310.008 C268.616,318.792 270.92,325.704 275.672,330.6 C280.28,335.352 287.192,338.376 296.264,339.672 L308.648,341.4 C311.96,341.832 314.12,342.84 315.416,344.136 C316.856,345.72 317.432,347.736 317.432,350.184 C317.432,356.088 312.68,359.4 302.744,359.4 C294.536,359.4 285.176,357.528 279.848,352.2 L263.72,368.328 C274.088,378.984 286.904,381.864 302.6,381.864 C324.2,381.864 342.2,370.488 342.2,349.608 Z M428.312,300.936 L428.312,278.472 L352.712,278.472 L352.712,300.936 L377.912,300.936 L377.912,381 L403.112,381 L403.112,300.936 L428.312,300.936 Z M519.032,345 L519.032,278.472 L493.832,278.472 L493.832,344.424 C493.832,353.928 488.36,359.4 480.008,359.4 C471.656,359.4 466.472,353.928 466.472,344.424 L466.472,278.472 L441.272,278.472 L441.272,345 C441.272,367.464 458.696,381.864 480.008,381.864 C501.32,381.864 519.032,367.464 519.032,345 Z M612.488,348.456 L586.856,348.456 C585.272,354.216 582.104,359.4 573.752,359.4 C569.144,359.4 565.688,357.528 563.816,355.08 C561.512,352.056 559.928,348.456 559.928,329.736 C559.928,311.016 561.512,307.416 563.816,304.392 C565.688,301.944 569.144,300.072 573.752,300.072 C582.104,300.072 585.272,305.256 586.856,311.016 L612.488,311.016 C608.744,288.408 593.048,277.608 573.608,277.608 C561.656,277.608 552.584,281.64 545.096,289.128 C534.296,299.928 534.728,314.328 534.728,329.736 C534.728,345.144 534.296,359.544 545.096,370.344 C552.584,377.832 561.656,381.864 573.608,381.864 C593.048,381.864 608.744,371.064 612.488,348.456 Z M712.28,381 L676.136,319.944 L711.128,278.472 L680.312,278.472 L650.648,314.76 L650.648,278.472 L625.736,278.472 L625.736,381 L650.648,381 L650.648,348.888 L659.288,338.952 L682.904,381 L712.28,381 Z" id="STUCK"></path>
        </g>
    </g>
</svg>
